<svg width="30" height="31" viewBox="0 0 30 31" fill="none" xmlns="http://www.w3.org/2000/svg">
<path d="M21.7209 0.300781H8.27874C3.71384 0.300781 0 4.0148 0 8.5797V22.0219C0 26.5869 3.71384 30.3008 8.27874 30.3008H21.7209C26.2862 30.3008 30 26.5868 30 22.0219V8.5797C30.0002 4.0148 26.2862 0.300781 21.7209 0.300781ZM27.3384 22.0219C27.3384 25.1193 24.8185 27.639 21.7211 27.639H8.27874C5.18153 27.6392 2.66175 25.1193 2.66175 22.0219V8.5797C2.66175 5.48249 5.18153 2.96253 8.27874 2.96253H21.7209C24.8183 2.96253 27.3383 5.48249 27.3383 8.5797V22.0219H27.3384Z" fill="#666666"/>
<path d="M14.9998 7.57104C10.7373 7.57104 7.26953 11.0388 7.26953 15.3013C7.26953 19.5636 10.7373 23.0312 14.9998 23.0312C19.2623 23.0312 22.73 19.5636 22.73 15.3013C22.73 11.0388 19.2623 7.57104 14.9998 7.57104ZM14.9998 20.3692C12.2051 20.3692 9.93128 18.0958 9.93128 15.3011C9.93128 12.5063 12.2049 10.2326 14.9998 10.2326C17.7946 10.2326 20.0683 12.5063 20.0683 15.3011C20.0683 18.0958 17.7944 20.3692 14.9998 20.3692Z" fill="#666666"/>
<path d="M23.0545 5.31396C22.5417 5.31396 22.0379 5.52158 21.6757 5.88535C21.3118 6.24735 21.1025 6.75131 21.1025 7.26591C21.1025 7.77892 21.3119 8.2827 21.6757 8.64647C22.0377 9.00847 22.5417 9.21786 23.0545 9.21786C23.5691 9.21786 24.0713 9.00847 24.435 8.64647C24.7988 8.2827 25.0064 7.77874 25.0064 7.26591C25.0064 6.75131 24.7988 6.24735 24.435 5.88535C24.073 5.52158 23.5691 5.31396 23.0545 5.31396Z" fill="#666666"/>
</svg>
